<?xml version="1.0" encoding="UTF-8"?>
<!DOCTYPE svg PUBLIC "-//W3C//DTD SVG 1.1//EN" "http://www.w3.org/Graphics/SVG/1.1/DTD/svg11.dtd">
<svg version="1.2" width="22.02mm" height="20.96mm" viewBox="0 0 2202 2096" preserveAspectRatio="xMidYMid" fill-rule="evenodd" stroke-width="28.222" stroke-linejoin="round" xmlns="http://www.w3.org/2000/svg" xmlns:ooo="http://xml.openoffice.org/svg/export" xmlns:xlink="http://www.w3.org/1999/xlink" xmlns:presentation="http://sun.com/xmlns/staroffice/presentation" xmlns:smil="http://www.w3.org/2001/SMIL20/" xmlns:anim="urn:oasis:names:tc:opendocument:xmlns:animation:1.0" xml:space="preserve">
 <defs class="ClipPathGroup">
  <clipPath id="presentation_clip_path" clipPathUnits="userSpaceOnUse">
   <rect x="0" y="0" width="2202" height="2096"/>
  </clipPath>
  <clipPath id="presentation_clip_path_shrink" clipPathUnits="userSpaceOnUse">
   <rect x="2" y="2" width="2198" height="2092"/>
  </clipPath>
 </defs>
 <defs class="TextShapeIndex">
  <g ooo:slide="id1" ooo:id-list="id3"/>
 </defs>
 <defs class="EmbeddedBulletChars">
  <g id="bullet-char-template-57356" transform="scale(0.00048828125,-0.00048828125)">
   <path d="M 580,1141 L 1163,571 580,0 -4,571 580,1141 Z"/>
  </g>
  <g id="bullet-char-template-57354" transform="scale(0.00048828125,-0.00048828125)">
   <path d="M 8,1128 L 1137,1128 1137,0 8,0 8,1128 Z"/>
  </g>
  <g id="bullet-char-template-10146" transform="scale(0.00048828125,-0.00048828125)">
   <path d="M 174,0 L 602,739 174,1481 1456,739 174,0 Z M 1358,739 L 309,1346 659,739 1358,739 Z"/>
  </g>
  <g id="bullet-char-template-10132" transform="scale(0.00048828125,-0.00048828125)">
   <path d="M 2015,739 L 1276,0 717,0 1260,543 174,543 174,936 1260,936 717,1481 1274,1481 2015,739 Z"/>
  </g>
  <g id="bullet-char-template-10007" transform="scale(0.00048828125,-0.00048828125)">
   <path d="M 0,-2 C -7,14 -16,27 -25,37 L 356,567 C 262,823 215,952 215,954 215,979 228,992 255,992 264,992 276,990 289,987 310,991 331,999 354,1012 L 381,999 492,748 772,1049 836,1024 860,1049 C 881,1039 901,1025 922,1006 886,937 835,863 770,784 769,783 710,716 594,584 L 774,223 C 774,196 753,168 711,139 L 727,119 C 717,90 699,76 672,76 641,76 570,178 457,381 L 164,-76 C 142,-110 111,-127 72,-127 30,-127 9,-110 8,-76 1,-67 -2,-52 -2,-32 -2,-23 -1,-13 0,-2 Z"/>
  </g>
  <g id="bullet-char-template-10004" transform="scale(0.00048828125,-0.00048828125)">
   <path d="M 285,-33 C 182,-33 111,30 74,156 52,228 41,333 41,471 41,549 55,616 82,672 116,743 169,778 240,778 293,778 328,747 346,684 L 369,508 C 377,444 397,411 428,410 L 1163,1116 C 1174,1127 1196,1133 1229,1133 1271,1133 1292,1118 1292,1087 L 1292,965 C 1292,929 1282,901 1262,881 L 442,47 C 390,-6 338,-33 285,-33 Z"/>
  </g>
  <g id="bullet-char-template-9679" transform="scale(0.00048828125,-0.00048828125)">
   <path d="M 813,0 C 632,0 489,54 383,161 276,268 223,411 223,592 223,773 276,916 383,1023 489,1130 632,1184 813,1184 992,1184 1136,1130 1245,1023 1353,916 1407,772 1407,592 1407,412 1353,268 1245,161 1136,54 992,0 813,0 Z"/>
  </g>
  <g id="bullet-char-template-8226" transform="scale(0.00048828125,-0.00048828125)">
   <path d="M 346,457 C 273,457 209,483 155,535 101,586 74,649 74,723 74,796 101,859 155,911 209,963 273,989 346,989 419,989 480,963 531,910 582,859 608,796 608,723 608,648 583,586 532,535 482,483 420,457 346,457 Z"/>
  </g>
  <g id="bullet-char-template-8211" transform="scale(0.00048828125,-0.00048828125)">
   <path d="M -4,459 L 1135,459 1135,606 -4,606 -4,459 Z"/>
  </g>
  <g id="bullet-char-template-61548" transform="scale(0.00048828125,-0.00048828125)">
   <path d="M 173,740 C 173,903 231,1043 346,1159 462,1274 601,1332 765,1332 928,1332 1067,1274 1183,1159 1299,1043 1357,903 1357,740 1357,577 1299,437 1183,322 1067,206 928,148 765,148 601,148 462,206 346,322 231,437 173,577 173,740 Z"/>
  </g>
 </defs>
 <defs class="TextEmbeddedBitmaps"/>
 <g>
  <g id="id2" class="Master_Slide">
   <g id="bg-id2" class="Background"/>
   <g id="bo-id2" class="BackgroundObjects"/>
  </g>
 </g>
 <g class="SlideGroup">
  <g>
   <g id="container-id1">
    <g id="id1" class="Slide" clip-path="url(#presentation_clip_path)">
     <g class="Page">
      <g class="Graphic">
       <g id="id3">
        <rect class="BoundingBox" stroke="none" fill="none" x="0" y="0" width="2202" height="2096"/>
        <path fill="rgb(255,226,177)" stroke="none" d="M 527,13 L 527,113 627,113 627,13 527,13 Z M 547,93 L 547,33 607,33 607,93 547,93 Z"/>
        <path fill="rgb(255,226,177)" stroke="none" d="M 13,627 L 113,627 113,528 13,528 13,627 Z M 93,547 L 93,608 33,608 33,547 93,547 Z"/>
        <path fill="rgb(255,226,177)" stroke="none" d="M 496,14 L 275,14 275,144 234,144 234,14 13,14 13,234 144,234 144,275 13,275 13,496 144,496 144,627 365,627 365,496 406,496 406,627 627,627 627,406 496,406 496,365 627,365 627,144 496,144 496,14 Z M 557,557 L 557,477 496,477 496,426 608,426 608,608 426,608 426,365 477,365 477,557 557,557 Z M 496,538 L 496,496 537,496 537,538 496,538 Z M 406,426 L 406,477 234,477 234,426 406,426 Z M 295,557 L 295,496 345,496 345,608 164,608 164,365 215,365 215,557 295,557 Z M 234,538 L 234,496 275,496 275,538 234,538 Z M 84,84 L 84,164 144,164 144,215 33,215 33,33 215,33 215,275 164,275 164,84 84,84 Z M 144,103 L 144,144 103,144 103,103 144,103 Z M 234,215 L 234,164 406,164 406,215 234,215 Z M 345,84 L 345,145 295,145 295,33 477,33 477,275 426,275 426,84 345,84 Z M 406,103 L 406,144 365,144 365,103 406,103 Z M 496,215 L 496,164 608,164 608,346 365,346 365,295 557,295 557,215 496,215 Z M 496,275 L 496,234 537,234 537,275 496,275 Z M 365,275 L 365,234 406,234 406,275 365,275 Z M 406,365 L 406,406 365,406 365,365 406,365 Z M 345,234 L 345,406 295,406 295,234 345,234 Z M 234,275 L 234,234 275,234 275,275 234,275 Z M 144,426 L 144,477 33,477 33,295 275,295 275,346 84,346 84,426 144,426 Z M 144,365 L 144,406 103,406 103,365 144,365 Z M 275,365 L 275,406 234,406 234,365 275,365 Z"/>
        <path fill="rgb(255,226,177)" stroke="none" d="M 527,1468 L 527,1568 627,1568 627,1468 527,1468 Z M 547,1548 L 547,1488 607,1488 607,1548 547,1548 Z"/>
        <path fill="rgb(255,226,177)" stroke="none" d="M 13,2082 L 113,2082 113,1982 13,1982 13,2082 Z M 93,2002 L 93,2062 33,2062 33,2002 93,2002 Z"/>
        <path fill="rgb(255,226,177)" stroke="none" d="M 496,1468 L 275,1468 275,1599 234,1599 234,1468 13,1468 13,1689 144,1689 144,1730 13,1730 13,1951 144,1951 144,2082 365,2082 365,1951 406,1951 406,2082 627,2082 627,1861 496,1861 496,1820 627,1820 627,1599 496,1599 496,1468 Z M 557,2012 L 557,1931 496,1931 496,1880 608,1880 608,2062 426,2062 426,1820 477,1820 477,2012 557,2012 Z M 496,1992 L 496,1951 537,1951 537,1992 496,1992 Z M 406,1880 L 406,1931 234,1931 234,1880 406,1880 Z M 295,2012 L 295,1951 345,1951 345,2062 164,2062 164,1820 215,1820 215,2012 295,2012 Z M 234,1992 L 234,1951 275,1951 275,1992 234,1992 Z M 84,1538 L 84,1619 144,1619 144,1669 33,1669 33,1488 215,1488 215,1730 164,1730 164,1538 84,1538 Z M 144,1558 L 144,1599 103,1599 103,1558 144,1558 Z M 234,1669 L 234,1619 406,1619 406,1669 234,1669 Z M 345,1538 L 345,1599 295,1599 295,1488 477,1488 477,1730 426,1730 426,1538 345,1538 Z M 406,1558 L 406,1599 365,1599 365,1558 406,1558 Z M 496,1669 L 496,1619 608,1619 608,1800 365,1800 365,1750 557,1750 557,1669 496,1669 Z M 496,1730 L 496,1689 537,1689 537,1730 496,1730 Z M 365,1730 L 365,1689 406,1689 406,1730 365,1730 Z M 406,1820 L 406,1861 365,1861 365,1820 406,1820 Z M 345,1689 L 345,1861 295,1861 295,1689 345,1689 Z M 234,1730 L 234,1689 275,1689 275,1730 234,1730 Z M 144,1880 L 144,1931 33,1931 33,1750 275,1750 275,1800 84,1800 84,1880 144,1880 Z M 144,1820 L 144,1861 103,1861 103,1820 144,1820 Z M 275,1820 L 275,1861 234,1861 234,1820 275,1820 Z"/>
        <path fill="rgb(255,226,177)" stroke="none" d="M 2088,13 L 2088,113 2188,113 2188,13 2088,13 Z M 2108,93 L 2108,33 2168,33 2168,93 2108,93 Z"/>
        <path fill="rgb(255,226,177)" stroke="none" d="M 1574,627 L 1673,627 1673,528 1574,528 1574,627 Z M 1654,547 L 1654,608 1593,608 1593,547 1654,547 Z"/>
        <path fill="rgb(255,226,177)" stroke="none" d="M 2057,14 L 1836,14 1836,144 1795,144 1795,14 1574,14 1574,234 1705,234 1705,275 1574,275 1574,496 1705,496 1705,627 1925,627 1925,496 1967,496 1967,627 2188,627 2188,406 2057,406 2057,365 2188,365 2188,144 2057,144 2057,14 Z M 2117,557 L 2117,477 2057,477 2057,426 2168,426 2168,608 1986,608 1986,365 2037,365 2037,557 2117,557 Z M 2057,538 L 2057,496 2098,496 2098,538 2057,538 Z M 1967,426 L 1967,477 1795,477 1795,426 1967,426 Z M 1855,557 L 1855,496 1906,496 1906,608 1724,608 1724,365 1775,365 1775,557 1855,557 Z M 1795,538 L 1795,496 1836,496 1836,538 1795,538 Z M 1644,84 L 1644,164 1705,164 1705,215 1593,215 1593,33 1775,33 1775,275 1724,275 1724,84 1644,84 Z M 1705,103 L 1705,144 1664,144 1664,103 1705,103 Z M 1795,215 L 1795,164 1967,164 1967,215 1795,215 Z M 1906,84 L 1906,145 1855,145 1855,33 2037,33 2037,275 1986,275 1986,84 1906,84 Z M 1967,103 L 1967,144 1925,144 1925,103 1967,103 Z M 2057,215 L 2057,164 2168,164 2168,346 1925,346 1925,295 2117,295 2117,215 2057,215 Z M 2057,275 L 2057,234 2098,234 2098,275 2057,275 Z M 1925,275 L 1925,234 1967,234 1967,275 1925,275 Z M 1967,365 L 1967,406 1925,406 1925,365 1967,365 Z M 1906,234 L 1906,406 1855,406 1855,234 1906,234 Z M 1795,275 L 1795,234 1836,234 1836,275 1795,275 Z M 1705,426 L 1705,477 1593,477 1593,295 1836,295 1836,346 1644,346 1644,426 1705,426 Z M 1705,365 L 1705,406 1664,406 1664,365 1705,365 Z M 1836,365 L 1836,406 1795,406 1795,365 1836,365 Z"/>
        <path fill="rgb(255,226,177)" stroke="none" d="M 2088,1468 L 2088,1568 2188,1568 2188,1468 2088,1468 Z M 2108,1548 L 2108,1488 2168,1488 2168,1548 2108,1548 Z"/>
        <path fill="rgb(255,226,177)" stroke="none" d="M 1574,2082 L 1673,2082 1673,1982 1574,1982 1574,2082 Z M 1654,2002 L 1654,2062 1593,2062 1593,2002 1654,2002 Z"/>
        <path fill="rgb(255,226,177)" stroke="none" d="M 2057,1468 L 1836,1468 1836,1599 1795,1599 1795,1468 1574,1468 1574,1689 1705,1689 1705,1730 1574,1730 1574,1951 1705,1951 1705,2082 1925,2082 1925,1951 1967,1951 1967,2082 2188,2082 2188,1861 2057,1861 2057,1820 2188,1820 2188,1599 2057,1599 2057,1468 Z M 2117,2012 L 2117,1931 2057,1931 2057,1880 2168,1880 2168,2062 1986,2062 1986,1820 2037,1820 2037,2012 2117,2012 Z M 2057,1992 L 2057,1951 2098,1951 2098,1992 2057,1992 Z M 1967,1880 L 1967,1931 1795,1931 1795,1880 1967,1880 Z M 1855,2012 L 1855,1951 1906,1951 1906,2062 1724,2062 1724,1820 1775,1820 1775,2012 1855,2012 Z M 1795,1992 L 1795,1951 1836,1951 1836,1992 1795,1992 Z M 1644,1538 L 1644,1619 1705,1619 1705,1669 1593,1669 1593,1488 1775,1488 1775,1730 1724,1730 1724,1538 1644,1538 Z M 1705,1558 L 1705,1599 1664,1599 1664,1558 1705,1558 Z M 1795,1669 L 1795,1619 1967,1619 1967,1669 1795,1669 Z M 1906,1538 L 1906,1599 1855,1599 1855,1488 2037,1488 2037,1730 1986,1730 1986,1538 1906,1538 Z M 1967,1558 L 1967,1599 1925,1599 1925,1558 1967,1558 Z M 2057,1669 L 2057,1619 2168,1619 2168,1800 1925,1800 1925,1750 2117,1750 2117,1669 2057,1669 Z M 2057,1730 L 2057,1689 2098,1689 2098,1730 2057,1730 Z M 1925,1730 L 1925,1689 1967,1689 1967,1730 1925,1730 Z M 1967,1820 L 1967,1861 1925,1861 1925,1820 1967,1820 Z M 1906,1689 L 1906,1861 1855,1861 1855,1689 1906,1689 Z M 1795,1730 L 1795,1689 1836,1689 1836,1730 1795,1730 Z M 1705,1880 L 1705,1931 1593,1931 1593,1750 1836,1750 1836,1800 1644,1800 1644,1880 1705,1880 Z M 1705,1820 L 1705,1861 1664,1861 1664,1820 1705,1820 Z M 1836,1820 L 1836,1861 1795,1861 1795,1820 1836,1820 Z"/>
        <path fill="rgb(255,229,200)" stroke="none" d="M 937,264 L 937,335 727,335 727,347 937,347 937,376 727,376 727,389 1174,389 1174,264 937,264 Z M 1161,376 L 949,376 949,277 1161,277 1161,376 Z"/>
        <path fill="rgb(255,229,200)" stroke="none" d="M 1003,145 L 1003,252 1193,252 1193,401 1003,401 1003,508 1244,508 1244,145 1003,145 Z M 1231,495 L 1016,495 1016,414 1205,414 1205,239 1016,239 1016,158 1231,158 1231,495 Z"/>
        <path fill="rgb(255,229,200)" stroke="none" d="M 1122,207 L 1039,207 1039,194 1204,194 1204,207 1122,207 Z"/>
        <path fill="rgb(255,229,200)" stroke="none" d="M 1122,459 L 1039,459 1039,446 1204,446 1204,459 1122,459 Z"/>
        <path fill="rgb(255,229,200)" stroke="none" d="M 1259,145 L 1259,252 1313,252 1313,264 1259,264 1259,389 1389,389 1389,274 C 1389,274 1389,274 1389,274 1389,261 1392,251 1398,240 1404,230 1412,222 1422,216 1433,210 1443,207 1455,207 L 1470,207 1470,145 1259,145 Z M 1458,194 L 1455,194 C 1441,194 1429,198 1416,205 1403,212 1394,221 1387,234 1379,247 1376,259 1376,274 1376,274 1376,274 1376,274 L 1376,377 1272,377 1272,277 1326,277 1326,239 1272,239 1272,158 1458,158 1458,194 Z"/>
        <path fill="rgb(255,229,200)" stroke="none" d="M 1339,207 L 1325,207 1325,194 1353,194 1353,207 1339,207 Z"/>
        <path fill="rgb(255,229,200)" stroke="none" d="M 937,1718 L 937,1789 727,1789 727,1802 937,1802 937,1831 727,1831 727,1844 1174,1844 1174,1718 937,1718 Z M 1161,1831 L 949,1831 949,1731 1161,1731 1161,1831 Z"/>
        <path fill="rgb(255,229,200)" stroke="none" d="M 1003,1600 L 1003,1706 1193,1706 1193,1856 1003,1856 1003,1962 1244,1962 1244,1600 1003,1600 Z M 1231,1949 L 1016,1949 1016,1869 1205,1869 1205,1693 1016,1693 1016,1613 1231,1613 1231,1949 Z"/>
        <path fill="rgb(255,229,200)" stroke="none" d="M 1122,1662 L 1039,1662 1039,1649 1204,1649 1204,1662 1122,1662 Z"/>
        <path fill="rgb(255,229,200)" stroke="none" d="M 1122,1914 L 1039,1914 1039,1901 1204,1901 1204,1914 1122,1914 Z"/>
        <path fill="rgb(255,229,200)" stroke="none" d="M 1259,1600 L 1259,1706 1313,1706 1313,1718 1259,1718 1259,1844 1389,1844 1389,1729 C 1389,1729 1389,1729 1389,1728 1389,1716 1392,1706 1398,1695 1404,1684 1412,1677 1422,1670 1433,1664 1443,1662 1455,1661 L 1470,1661 1470,1600 1259,1600 Z M 1458,1649 L 1455,1649 C 1441,1649 1429,1652 1416,1659 1403,1667 1394,1676 1387,1689 1379,1701 1376,1714 1376,1728 1376,1729 1376,1729 1376,1729 L 1376,1831 1272,1831 1272,1731 1326,1731 1326,1693 1272,1693 1272,1613 1458,1613 1458,1649 Z"/>
        <path fill="rgb(255,229,200)" stroke="none" d="M 1339,1662 L 1325,1662 1325,1648 1353,1648 1353,1662 1339,1662 Z"/>
        <path fill="rgb(255,226,177)" stroke="none" d="M 1950,1234 L 1879,1234 1879,1400 1866,1400 1866,1234 1837,1234 1837,1400 1824,1400 1824,997 1950,997 1950,1234 Z M 1837,1010 L 1837,1222 1937,1222 1937,1010 1837,1010 Z"/>
        <path fill="rgb(255,226,177)" stroke="none" d="M 2068,1168 L 1962,1168 1962,979 1812,979 1812,1168 1706,1168 1706,927 2068,927 2068,1168 Z M 1719,940 L 1719,1155 1799,1155 1799,966 1975,966 1975,1155 2055,1155 2055,940 1719,940 Z"/>
        <path fill="rgb(255,226,177)" stroke="none" d="M 2013,1132 L 2007,1132 2007,967 2019,967 2019,1132 2013,1132 Z"/>
        <path fill="rgb(255,226,177)" stroke="none" d="M 1761,1132 L 1754,1132 1754,967 1767,967 1767,1132 1761,1132 Z"/>
        <path fill="rgb(255,226,177)" stroke="none" d="M 2068,912 L 1962,912 1962,858 1950,858 1950,912 1824,912 1824,782 1939,782 C 1939,782 1940,782 1940,782 1952,782 1963,779 1973,773 1984,767 1992,759 1998,749 2004,738 2007,728 2007,716 L 2007,701 2068,701 2068,912 Z M 2019,714 L 2019,716 C 2019,730 2016,743 2009,755 2001,768 1992,777 1980,784 1967,792 1954,795 1940,795 1940,795 1939,795 1939,795 L 1837,795 1837,899 1937,899 1937,846 1975,846 1975,899 2055,899 2055,714 2019,714 Z"/>
        <path fill="rgb(255,226,177)" stroke="none" d="M 2013,846 L 2006,846 2006,818 2020,818 2020,846 2013,846 Z"/>
        <path fill="rgb(255,226,177)" stroke="none" d="M 264,1234 L 335,1234 335,1400 348,1400 348,1234 377,1234 377,1400 389,1400 389,997 264,997 264,1234 Z M 377,1010 L 377,1222 277,1222 277,1010 377,1010 Z"/>
        <path fill="rgb(255,226,177)" stroke="none" d="M 145,1168 L 252,1168 252,979 401,979 401,1168 508,1168 508,927 145,927 145,1168 Z M 495,940 L 495,1155 414,1155 414,966 239,966 239,1155 158,1155 158,940 495,940 Z"/>
        <path fill="rgb(255,226,177)" stroke="none" d="M 201,1132 L 194,1132 194,967 207,967 207,1132 201,1132 Z"/>
        <path fill="rgb(255,226,177)" stroke="none" d="M 453,1132 L 446,1132 446,967 459,967 459,1132 453,1132 Z"/>
        <path fill="rgb(255,226,177)" stroke="none" d="M 145,912 L 252,912 252,858 264,858 264,912 389,912 389,782 274,782 C 274,782 274,782 274,782 261,782 251,779 240,773 230,767 222,759 216,749 210,738 207,728 207,716 L 207,701 145,701 145,912 Z M 194,714 L 194,716 C 194,730 198,743 205,755 212,768 221,777 234,784 247,792 259,795 274,795 274,795 274,795 274,795 L 377,795 377,899 277,899 277,846 239,846 239,899 158,899 158,714 194,714 Z"/>
        <path fill="rgb(255,226,177)" stroke="none" d="M 200,846 L 194,846 194,818 207,818 207,846 200,846 Z"/>
       </g>
      </g>
     </g>
    </g>
   </g>
  </g>
 </g>
</svg>