<svg id="hoa-sen" xmlns="http://www.w3.org/2000/svg" width="199.72" height="88" viewBox="0 0 199.72 88">
  <path id="Tracé_8172" data-name="Tracé 8172" d="M68.515,13.872l-.021-.065C66.423,19.7,58.782,41.458,56.787,47.23h0C55.725,50.3,55.434,52.143,56,53.48c.992,2.326,4.442,3.527,6.495,4.76H48.783a9.638,9.638,0,0,1-2.317-.266,6.467,6.467,0,0,1-4.032-2.8A7.409,7.409,0,0,1,41.293,51.2a6.761,6.761,0,0,1,.142-1.4c.595-2.758,12.8-35.836,12.838-35.931l.522-1.476,4.021,11.03.084.227-1.8,4.964-.526,1.53-1.759-5c-1.821,5.4-7.837,23.292-8.5,25.59h0a3.546,3.546,0,0,0-.13.957,4.232,4.232,0,0,0,.762,2.35,3.442,3.442,0,0,0,1.634,1.342,1.631,1.631,0,0,0,.5.083l3.7,0a5.915,5.915,0,0,1-1.733-2.588,8.626,8.626,0,0,1,.2-4.663c.7-2.8,9.058-25.8,13.68-38.454.9-2.459,1.655-4.528,2.187-5.981s.85-2.308.85-2.31L68.5,0l.568,1.471s.318.853.85,2.31S71.206,7.3,72.1,9.761c4.623,12.658,12.98,35.655,13.684,38.454a8.644,8.644,0,0,1,.2,4.663,5.919,5.919,0,0,1-1.734,2.588l3.706,0a1.649,1.649,0,0,0,.5-.083,3.419,3.419,0,0,0,1.631-1.342,4.2,4.2,0,0,0,.762-2.35,3.474,3.474,0,0,0-.128-.957h0c-.661-2.3-6.681-20.191-8.5-25.59l-1.759,4.83-.526-1.362-1.785-4.989.067-.2,4.02-10.859.526,1.305C82.8,13.962,95,47.04,95.6,49.8a7.019,7.019,0,0,1,.139,1.4A7.417,7.417,0,0,1,94.6,55.179a6.486,6.486,0,0,1-4.034,2.8,9.663,9.663,0,0,1-2.318.266H74.535c2.053-1.233,5.5-2.435,6.493-4.76.57-1.337.278-3.184-.779-6.25h0c-2-5.772-9.635-27.528-11.705-33.423l-.025.065Zm.035,34.9-.035-.093-.032.093L63.13,34.909,62.6,33.521,60.36,39.659l-.076.239,7.675,19.989.556,1.363.559-1.363,7.671-20.252-.072-.227-2.22-6.1L73.9,34.656,68.55,48.776Z" transform="translate(31.345)" fill="#003383"/>
  <g id="Groupe_8743" data-name="Groupe 8743" transform="translate(0 69.704)">
    <g id="Groupe_8741" data-name="Groupe 8741" transform="translate(102.807)">
      <path id="Tracé_8173" data-name="Tracé 8173" d="M70.123,47.567c.292,0,.457.062.457.252V48.4c0,.376-.046,3.722-.088,4.713-.014.566-.04.945-.54.945H68.827c-.144,0-.165.063-.165.165v.484a.165.165,0,0,0,.165.183c.589,0,1.251-.06,3.214-.06,1.8,0,2.5.06,2.837.06.164,0,.213-.086.213-.208V54.2c0-.081-.049-.144-.171-.144h-.836c-.626,0-.836-.3-.836-1.045,0-1.189-.042-4.157-.042-5.073V45.69c0-.67.042-3.5.042-3.8,0-.721.042-1.061.668-1.061h.753c.208,0,.25-.088.25-.211v-.431c0-.109-.042-.188-.25-.188-.341,0-1.17.062-2.758.062-1.664,0-2.582-.062-2.957-.062-.144,0-.164.062-.164.16v.484c0,.128.019.187.164.187h.957c.461,0,.54.378.566,1.041.014.232.1,3.158.1,3.9V46.4c0,.227-.088.3-.417.3H63.279c-.183,0-.255-.093-.255-.3v-.83c0-.547.088-3.3.109-3.592.019-.807.107-1.147.855-1.147h.748c.169,0,.213-.088.213-.211v-.431c0-.109-.044-.188-.213-.188-.373,0-1.122.062-3,.062C59.69,40.06,59.02,40,58.649,40a.189.189,0,0,0-.206.2v.442c0,.1.035.187.206.187h.916c.67,0,.8.287.8,1.337,0,.306.035,2.9.035,3.525v2.67c0,1.335-.035,3.713-.035,4.714,0,.477-.093.982-.586.982H58.695c-.171,0-.216.04-.216.165v.484c0,.1.046.183.216.183.412,0,1.041-.06,3.085-.06,1.708,0,2.417.06,2.792.06.164,0,.213-.086.213-.208V54.2c0-.1-.049-.144-.213-.144h-.748c-.459,0-.691-.206-.712-.711-.04-1.441-.088-3.861-.088-4.607v-.9c0-.188.072-.273.294-.273Z" transform="translate(-58.443 -39.342)" fill="#003383" fill-rule="evenodd"/>
      <path id="Tracé_8174" data-name="Tracé 8174" d="M76.7,39.854a7.127,7.127,0,0,0-5.888,2.674A8.27,8.27,0,0,0,68.9,47.7a7.287,7.287,0,0,0,3.047,6.174,9.575,9.575,0,0,0,4.709,1.374,7.372,7.372,0,0,0,6.257-2.954A7.262,7.262,0,0,0,84.466,47.7a7.75,7.75,0,0,0-2.841-6.173A7.38,7.38,0,0,0,76.7,39.854Zm-.084.922c2,0,5.087,2.581,5.087,7.128,0,1.754-.667,6.428-4.88,6.428-1.754,0-5.091-1.917-5.091-7.342a7.431,7.431,0,0,1,1.879-5.049,3.584,3.584,0,0,1,3-1.165Z" transform="translate(-50.504 -39.451)" fill="#003383" fill-rule="evenodd"/>
      <path id="Tracé_8175" data-name="Tracé 8175" d="M87.734,49.372c.239.767,1.082,3.443,1.247,4.2.128.566-.042.772-.626.772h-.544c-.123,0-.165.04-.165.165v.424c0,.114.042.243.209.243.459,0,1.161-.06,2.922-.06,2.294,0,2.705.06,3.087.06.169,0,.208-.128.208-.243v-.445c0-.1-.039-.144-.171-.144h-.665a1.585,1.585,0,0,1-1.337-.96c-.294-.565-1.622-4.447-2.125-6.074-.378-1.332-2-6-2.382-7.3-.04-.125-.127-.38-.243-.38s-.188.093-.317.215a6.931,6.931,0,0,1-2.065,1.04c-.171.046-.213.13-.213.216a.444.444,0,0,0,.132.246c.12.125,0,.5-.049.705-.206.549-1.9,5.05-2.037,5.467-.631,1.756-2.13,5.5-2.338,5.881-.38.649-.753.945-1.34.945H78.3c-.086,0-.125.04-.125.165v.4c0,.139,0,.267.125.267.294,0,.751-.06,2.3-.06,1.458,0,2.338.06,2.625.06.127,0,.171-.086.171-.208v-.522c0-.062-.044-.1-.206-.1h-.878c-.415,0-.756-.236-.756-.5a1.831,1.831,0,0,1,.042-.44c.107-.554,1.128-3.543,1.295-4.023Zm-4.549-.834c.146-.477,2.019-5.61,2.1-5.882.076-.186.153-.271.278-.271.081,0,.127.123.208.369.123.426,1.541,5.181,1.75,5.784Z" transform="translate(-43.465 -39.625)" fill="#003383" fill-rule="evenodd"/>
      <path id="Tracé_8176" data-name="Tracé 8176" d="M90.818,50.24c-.081,0-.107.044-.125.167-.042.253-.336,3.629-.375,3.881,0,.211.081.331.252.331s.248-.035.376-.239.2-.373.327-.373.253.076.5.239a5.475,5.475,0,0,0,3.55,1,4.341,4.341,0,0,0,4.417-4.623A4.021,4.021,0,0,0,98.7,47.633a6.619,6.619,0,0,0-3-1.624,6.965,6.965,0,0,1-2.544-1.295,2.507,2.507,0,0,1-.584-1.88,2.233,2.233,0,0,1,2.334-2.107,2.746,2.746,0,0,1,2.172.88,6.119,6.119,0,0,1,1.3,2.209.155.155,0,0,0,.2.13l.341-.109c.077-.021.121-.058.121-.141,0-.209-.334-3.131-.334-3.462,0-.216-.046-.339-.165-.339a.38.38,0,0,0-.3.123l-.273.278a.349.349,0,0,1-.436.058,6.554,6.554,0,0,0-2.628-.5,4.252,4.252,0,0,0-2.959,1,3.56,3.56,0,0,0-1.462,2.929,3.967,3.967,0,0,0,1.041,2.978,9.829,9.829,0,0,0,3.047,1.752c2.211.83,3.089,1.457,3.089,3.377a2.555,2.555,0,0,1-2.711,2.445,3.245,3.245,0,0,1-2.756-1.5,4.894,4.894,0,0,1-.8-2.382c0-.127-.035-.165-.125-.165l-.456-.044Z" transform="translate(-34.247 -39.451)" fill="#003383" fill-rule="evenodd"/>
      <path id="Tracé_8177" data-name="Tracé 8177" d="M101.269,47.523c.668,0,1.668.044,2.419.128a1.26,1.26,0,0,1,1.043.748c.1.25.25.718.34,1.043.039.127.081.171.162.148l.463-.088c.12-.018.165-.039.165-.144-.046-.459-.128-1.458-.128-2.289,0-.544,0-1.919.044-2.259.021-.123-.044-.165-.123-.165l-.544-.04a.155.155,0,0,0-.171.167,3.45,3.45,0,0,1-.329,1.172,1.212,1.212,0,0,1-.967.755c-.245.06-1.745.091-2.373.091l.037-6.02,3.172.081a3.624,3.624,0,0,1,1.588.537,19.468,19.468,0,0,1,2.292,2.341c.063.107.128.123.2.107l.371-.167c.081-.042.1-.111.065-.229-.086-.213-.876-3.048-.964-3.316a.139.139,0,0,0-.158-.127c-.111,0-.508.016-.843.016-.916,0-5.719.046-6.632.046h-.581C98.1,40.077,97.346,40,96.888,40c-.1,0-.123.037-.123.146v.538c0,.1.039.146.123.146h.786c.628,0,.846.165.925.732.039.294.083,2.876.083,4.59v7.01c0,.767-.083.9-1.043.9h-.711c-.164,0-.206.04-.206.165v.5c0,.125.042.171.165.171.2,0,.478-.016.9-.042.436,0,1-.018,1.777-.018,3.478,0,5.629.018,6.941.018,1.295.026,1.75.042,1.854.042a.444.444,0,0,0,.461-.306l1-3.138c.048-.1.018-.167-.037-.2l-.334-.211c-.09-.039-.148-.016-.23.083a27.613,27.613,0,0,1-1.944,2.2,3.5,3.5,0,0,1-1.7.718c-.419.039-1.377.086-1.75.086a6.664,6.664,0,0,1-1.634-.169c-.456-.13-.839-.542-.839-1.625,0-.376-.04-2.422-.056-3.55l-.021-1.252Z" transform="translate(-29.385 -39.342)" fill="#003383" fill-rule="evenodd"/>
      <path id="Tracé_8178" data-name="Tracé 8178" d="M107.781,42.855h.125c.248.289,3.582,4.458,3.882,4.753.248.331,1.875,2.3,3.333,4.092,1.286,1.539,2.424,2.841,2.584,3.045a1.074,1.074,0,0,0,.707.332c.257,0,.257-.292.257-.588v-5.5c0-2.13.208-5.634.311-7.052.069-.767.273-1.106.686-1.106h.589c.081,0,.12-.088.12-.211v-.473c0-.067-.039-.146-.209-.146-.248,0-.746.062-1.993.062-1.425,0-2.092-.062-2.34-.062-.171,0-.171.037-.171.16v.484c0,.1,0,.187.125.187h.67a1.108,1.108,0,0,1,1.1.79c.106.357.2,2.408.234,3.193.042,1.048.042,2.093.042,3.928V50.9h-.079c-.34-.413-3.6-4.461-3.886-4.79-.42-.588-4.507-5.715-4.718-5.921a.6.6,0,0,0-.5-.188c-.132,0-.311.016-.589.016-.246.021-.566.046-.918.046-.92,0-1.476,0-1.851-.025S104.752,40,104.65,40c-.086,0-.125.037-.125.127v.558a.131.131,0,0,0,.125.146h.661c.918,0,1.638.959,1.638,2.213V45.69c0,3.335-.129,6.259-.15,6.635-.106,1.268-.4,1.731-.938,1.731h-.712a.13.13,0,0,0-.125.121v.528c0,.137.042.183.125.183.213,0,1.629-.06,2.167-.06.8,0,2.048.06,2.253.06.167,0,.167-.042.167-.171v-.477c0-.106,0-.185-.167-.185h-.538c-.751,0-1-.5-1.041-1.543-.042-.654-.209-3.573-.209-7.114V42.855Z" transform="translate(-23.462 -39.342)" fill="#003383" fill-rule="evenodd"/>
    </g>
    <g id="Groupe_8742" data-name="Groupe 8742">
      <path id="Tracé_8179" data-name="Tracé 8179" d="M2.232,47.009H.378c-.12,0-.169.037-.169.16v.552c0,.123.049.171.13.171H2.232v.586c0,1.974-.086,4.885-.148,5.173-.06.359-.274.526-.695.526H.172A.161.161,0,0,0,0,54.348v.51c0,.123.047.165.172.165.206,0,1.135-.067,2.945-.067,1.048,0,3.659.067,3.991.067,1.481,0,4.758.023,6.776-2.253a7.431,7.431,0,0,0,2.067-5.513,6.609,6.609,0,0,0-2.359-5.341C11.705,40.319,9.469,40,6.567,40c-.5,0-2.44.062-3.156.062-2.1,0-2.946-.062-3.2-.062-.123,0-.162.046-.162.167v.528c0,.106.039.153.162.153h1.14c.413,0,.714.079.758.588.039.311.125,3.3.125,3.844v1.733Zm5.895.883c.123,0,.167-.047.167-.127v-.631c0-.088-.044-.125-.167-.125H4.885V45.83c0-.336,0-3.08.042-3.961,0-.5.081-.8.382-.945a3.341,3.341,0,0,1,1.342-.169A6.441,6.441,0,0,1,11.36,42.71,7.325,7.325,0,0,1,13.045,47.3a7.961,7.961,0,0,1-1.518,4.8,5.465,5.465,0,0,1-4.373,2.121,2.354,2.354,0,0,1-1.866-.588,1.856,1.856,0,0,1-.361-1.163c0-1.175-.042-3.613-.042-4.208v-.373Z" transform="translate(0 -39.343)" fill="#003383" fill-rule="evenodd"/>
      <path id="Tracé_8180" data-name="Tracé 8180" d="M19.136,49.453c.252.781,1.092,3.474,1.261,4.231.125.566-.042.776-.628.776h-.551c-.121,0-.169.046-.169.171v.422c0,.127.048.253.211.253.466,0,1.172-.067,2.943-.067,2.32,0,2.739.067,3.115.067.172,0,.211-.127.211-.253v-.438c0-.109-.039-.155-.171-.155h-.668a1.58,1.58,0,0,1-1.346-.962c-.3-.57-1.65-4.484-2.15-6.127-.378-1.344-2.021-6.06-2.4-7.362-.039-.13-.125-.383-.253-.383-.1,0-.188.09-.317.211a6.73,6.73,0,0,1-2.077,1.048c-.176.046-.211.134-.211.215a.5.5,0,0,0,.13.257c.116.121,0,.5-.044.716-.215.542-1.921,5.082-2.072,5.51-.624,1.764-2.141,5.553-2.352,5.932-.375.649-.756.946-1.346.946H9.621c-.077,0-.12.046-.12.171v.4c0,.144,0,.271.12.271.294,0,.753-.067,2.315-.067,1.478,0,2.355.067,2.656.067.121,0,.169-.086.169-.213v-.526c0-.062-.047-.107-.22-.107h-.873c-.422,0-.765-.225-.765-.5a1.844,1.844,0,0,1,.042-.449c.111-.561,1.138-3.574,1.3-4.06Zm-4.595-.837c.158-.489,2.049-5.663,2.129-5.937.069-.19.153-.273.278-.273.088,0,.121.128.208.382.128.415,1.557,5.216,1.766,5.828Z" transform="translate(7.212 -39.625)" fill="#003383" fill-rule="evenodd"/>
      <path id="Tracé_8181" data-name="Tracé 8181" d="M23.78,46.5c0-.25.042-4.878.042-5.093,0-.4.334-.561.8-.561h.8a.154.154,0,0,0,.165-.174v-.482c0-.106-.039-.192-.165-.192-.294,0-.967.062-2.985.062-2.06,0-3.159-.062-3.414-.062-.081,0-.125.046-.125.15v.545c0,.106.044.153.172.153h1.1c.589,0,.8.2.864.712.018.269.053,4.055.053,4.563V47.6c0,1.135-.035,5.68-.072,5.976-.088.559-.556.605-.973.605h-.846c-.121,0-.169.046-.169.13v.566c0,.107.048.15.169.15.215,0,1.138-.067,3.246-.067,1.974,0,2.813.067,3.075.067.12,0,.206-.042.206-.165v-.526a.154.154,0,0,0-.169-.155h-.885c-.508,0-.843-.077-.843-.755,0-.236-.042-5.066-.042-5.284V46.5Z" transform="translate(14.346 -39.343)" fill="#003383" fill-rule="evenodd"/>
      <path id="Tracé_8182" data-name="Tracé 8182" d="M37.855,47.64c.3,0,.461.062.461.252v.586c0,.382-.032,3.745-.074,4.753-.025.565-.046.946-.554.946H36.553c-.148,0-.165.069-.165.171v.48c0,.09.039.2.165.2.588,0,1.26-.067,3.242-.067,1.808,0,2.524.067,2.862.067.165,0,.215-.086.215-.213v-.478c0-.086-.049-.155-.171-.155h-.848c-.626,0-.837-.3-.837-1.05,0-1.2-.042-4.187-.042-5.114V45.744c0-.681.042-3.538.042-3.828,0-.739.042-1.071.674-1.071h.755c.213,0,.257-.09.257-.213v-.443c0-.106-.044-.192-.257-.192-.338,0-1.175.062-2.776.062-1.683,0-2.614-.062-2.99-.062-.146,0-.165.062-.165.167v.484c0,.127.019.2.165.2h.975c.461,0,.544.375.565,1.047.025.232.1,3.172.1,3.939v.628c0,.229-.074.294-.413.294H30.958c-.185,0-.25-.083-.25-.294v-.846c0-.549.083-3.323.1-3.615.014-.82.1-1.152.865-1.152h.756c.16,0,.206-.09.206-.213v-.443c0-.106-.046-.192-.206-.192-.375,0-1.14.062-3.04.062-2.056,0-2.732-.062-3.11-.062a.194.194,0,0,0-.206.209v.442c0,.107.039.2.206.2h.929c.672,0,.8.29.8,1.34,0,.32.039,2.927.039,3.559v2.69c0,1.351-.039,3.745-.039,4.753,0,.493-.086.99-.6.99H26.328c-.164,0-.211.046-.211.171v.48c0,.109.047.2.211.2.422,0,1.057-.067,3.121-.067,1.72,0,2.429.067,2.809.067.176,0,.215-.086.215-.213v-.478c0-.109-.039-.155-.215-.155h-.749c-.468,0-.7-.209-.718-.712-.042-1.455-.083-3.888-.083-4.646V47.9c0-.183.065-.264.294-.264Z" transform="translate(19.796 -39.343)" fill="#003383" fill-rule="evenodd"/>
      <path id="Tracé_8183" data-name="Tracé 8183" d="M44.5,39.854a7.194,7.194,0,0,0-5.933,2.693,8.368,8.368,0,0,0-1.938,5.221,7.318,7.318,0,0,0,3.077,6.22,9.6,9.6,0,0,0,4.753,1.4A7.473,7.473,0,0,0,50.767,52.4a7.374,7.374,0,0,0,1.557-4.628,7.822,7.822,0,0,0-2.86-6.227A7.456,7.456,0,0,0,44.5,39.854Zm-.086.925c2.021,0,5.126,2.607,5.126,7.2,0,1.764-.667,6.48-4.911,6.48-1.771,0-5.138-1.933-5.138-7.4a7.509,7.509,0,0,1,1.9-5.1,3.613,3.613,0,0,1,3.027-1.18Z" transform="translate(27.803 -39.451)" fill="#003383" fill-rule="evenodd"/>
      <path id="Tracé_8184" data-name="Tracé 8184" d="M60.447,51.327c-.055-.07-.142,0-.25.141A6.135,6.135,0,0,1,55.164,53.9a4.526,4.526,0,0,1-3.617-1.632A8.513,8.513,0,0,1,49.613,46.8c0-3.029,1.391-6.055,4.76-6.055a5,5,0,0,1,3.659,1.553,7.46,7.46,0,0,1,1.641,2.739c.069.167.125.25.232.209l.4-.125c.088-.026.1-.084.088-.213-.088-.635-.512-4-.512-4.38,0-.29-.04-.332-.3-.332s-.292,0-.34.123l-.16.549c-.037.169-.135.169-.42,0a9.168,9.168,0,0,0-4.254-1.01,7.277,7.277,0,0,0-5.469,2.231,8.183,8.183,0,0,0-2.15,5.634A8.012,8.012,0,0,0,49.066,53.4a7.434,7.434,0,0,0,5.509,1.981,7.557,7.557,0,0,0,6.273-3.532.162.162,0,0,0-.039-.215l-.362-.311Z" transform="translate(35.519 -39.451)" fill="#003383" fill-rule="evenodd"/>
      <path id="Tracé_8185" data-name="Tracé 8185" d="M13.47,49.226v1.407h1.488V49.226Z" transform="translate(10.225 -32.337)" fill="#003383" fill-rule="evenodd"/>
      <path id="Tracé_8186" data-name="Tracé 8186" d="M41.057,49.226v1.407h1.486V49.226Z" transform="translate(31.166 -32.337)" fill="#003383" fill-rule="evenodd"/>
    </g>
  </g>
</svg>